{"title":"Hit.by.Lightning.2014.BRRip.480p.x264.AAC-VYTO [P2PDL]","uid":12958777,"size":319529207,"categoryP":"video","categoryS":"movies","magnet":"?xt=urn:btih:ea09af7a6aacaa5e7467fb00ec2a7a0c555d1f02&amp;dn=Hit.by.Lightning.2014.BRRip.480p.x264.AAC-VYTO+%5BP2PDL%5D&amp;tr=udp%3A%2F%2Ftracker.leechers-paradise.org%3A6969&amp;tr=udp%3A%2F%2Fzer0day.ch%3A1337&amp;tr=udp%3A%2F%2Fopen.demonii.com%3A1337&amp;tr=udp%3A%2F%2Ftracker.coppersurfer.tk%3A6969&amp;tr=udp%3A%2F%2Fexodus.desync.com%3A6969","seeders":0,"leechers":0,"uploader":"VYTOP2PDL","files":7,"time":1449821390,"description":"Hit.by.Lightning.2014.BRRip.480p.x264.AAC-VYTO\r\n\r\n\r\nGenre: Comedy, Crime, Romance    \nhttp://www.imdb.com/title/tt2402619/\r\n\r\n\r\nFormat                                   : MPEG-4\r\nFile size                                : 300 MiB\r\nDuration                                 : 1h 28mn\r\nOverall bit rate                         : 472 Kbps\r\n\r\nVideo\r\nFormat                                   : AVC\r\nBit rate                                 : 439 Kbps\r\nWidth                                    : 720 pixels\r\nHeight                                   : 400 pixels\r\nDisplay aspect ratio                     : 16:9\r\nFrame rate mode                          : Constant\r\nFrame rate                               : 23.976 fps\r\nBit depth                                : 8 bits\r\nStream size                              : 278 MiB (93%)\r\nWriting library                          : x264\r\n\r\nAudio\r\nFormat                                   : AAC\r\nBit rate mode                            : Variable\r\nBit rate                                 : 32.0 Kbps\r\nChannel(s)                               : 2 channels\r\nChannel positions                        : Front: L R \r\nSampling rate                            : 48.0 KHz\r\nStream size                              : 20.3 MiB (7%)\r\nLanguage                                 : English\r\n\r\nSubtitle                                 : Yes (English)\r\n\r\nScreen Shots: (Click to view)\r\n \nhttp://ititli.com/BG \nhttp://ititli.com/BH \nhttp://ititli.com/BM \nhttp://ititli.com/BU \nhttp://ititli.com/Bh \nhttp://ititli.com/Bs \nhttp://ititli.com/BY \nhttp://ititli.com/B4 \nhttp://ititli.com/BK\r\n\r\n----------------------------------------------------------------------------------------------------\r\n\r\n\r\nEncoder Notes: Looking For Early Access To Anything You Can Provide WEBDL, DVDScr, DVDR, BluRay,\r\nDirect Audio, Music Releases and Seedboxes. If You Got anything to offer please contact us.\r\n\r\nSupport us by donating BC - 1FgwdzPsd1y25Gea8wP1qni35uGCtmkRCD\r\n\r\nSend some love!\r\nFind us and join us!","torrent":{"xt":"urn:btih:ea09af7a6aacaa5e7467fb00ec2a7a0c555d1f02","amp;dn":"Hit.by.Lightning.2014.BRRip.480p.x264.AAC-VYTO+%5BP2PDL%5D","amp;tr":["udp%3A%2F%2Ftracker.leechers-paradise.org%3A6969","udp%3A%2F%2Fzer0day.ch%3A1337","udp%3A%2F%2Fopen.demonii.com%3A1337","udp%3A%2F%2Ftracker.coppersurfer.tk%3A6969","udp%3A%2F%2Fexodus.desync.com%3A6969"],"infoHash":"ea09af7a6aacaa5e7467fb00ec2a7a0c555d1f02","infoHashBuffer":{"type":"Buffer","data":[234,9,175,122,106,172,170,94,116,103,251,0,236,42,122,12,85,93,31,2]},"announce":[],"urlList":[]}}